<svg xmlns="http://www.w3.org/2000/svg" xmlns:xlink="http://www.w3.org/1999/xlink" viewBox="0 0 28 28" id="svg796195990"><path d="M 11.031 4.048 C 11.289 4.306 11.36 4.696 11.209 5.028 C 9.685 8.399 10.407 12.362 13.023 14.978 C 15.639 17.594 19.602 18.316 22.973 16.792 C 23.304 16.643 23.693 16.714 23.95 16.971 C 24.207 17.228 24.279 17.616 24.13 17.948 C 22.18 22.259 17.618 24.764 12.934 24.097 C 8.25 23.429 4.57 19.749 3.902 15.065 C 3.235 10.381 5.74 5.818 10.051 3.869 C 10.383 3.719 10.773 3.79 11.031 4.048 Z M 8.872 6.63 C 6.214 8.763 5.009 12.229 5.77 15.551 C 6.532 18.874 9.126 21.468 12.449 22.23 C 15.771 22.991 19.237 21.786 21.37 19.127 C 17.89 19.814 14.296 18.72 11.788 16.212 C 9.28 13.704 8.186 10.11 8.872 6.63 Z" fill="var(--token-3e69690f-e811-4708-a47c-5853c9294015, rgb(102, 102, 102)) /* {&quot;name&quot;:&quot;Text / Grey 100&quot;} */"/><path d="" fill="rgba(0,170,255,0.5)" stroke="#0AF"/><path d="M 16.707 5.791 C 16.777 5.525 17.154 5.525 17.223 5.791 L 17.752 7.821 C 17.776 7.914 17.849 7.988 17.942 8.013 L 19.973 8.541 C 20.239 8.611 20.239 8.988 19.973 9.057 L 17.943 9.585 C 17.85 9.609 17.777 9.682 17.752 9.776 L 17.223 11.807 C 17.153 12.073 16.776 12.073 16.707 11.807 L 16.179 9.777 C 16.155 9.683 16.082 9.609 15.988 9.585 L 13.957 9.057 C 13.691 8.987 13.691 8.61 13.957 8.541 L 15.987 8.013 C 16.081 7.989 16.155 7.916 16.179 7.822 Z" fill="var(--token-3e69690f-e811-4708-a47c-5853c9294015, rgb(102, 102, 102)) /* {&quot;name&quot;:&quot;Text / Grey 100&quot;} */"/></svg>