<svg xmlns="http://www.w3.org/2000/svg" xlink="http://www.w3.org/1999/xlink" viewBox="0 0 24 24" id="svg206261963"><path d="M 12 3 C 7.031 3 3 7.031 3 12 C 3 16.968 7.031 21 12 21 C 16.959 21 21 16.968 21 12 C 21 7.031 16.959 3 12 3 Z M 17.945 7.149 C 19.053 8.498 19.666 10.186 19.682 11.932 C 19.428 11.882 16.891 11.366 14.333 11.688 C 14.274 11.561 14.226 11.424 14.167 11.288 C 14.008 10.912 13.839 10.541 13.659 10.175 C 16.49 9.023 17.779 7.363 17.945 7.149 Z M 12 4.328 C 13.878 4.327 15.69 5.014 17.095 6.26 C 16.959 6.456 15.797 8.008 13.064 9.033 C 11.804 6.719 10.409 4.825 10.194 4.533 C 10.786 4.395 11.392 4.326 12 4.328 Z M 8.73 5.05 C 9.76 6.478 10.711 7.96 11.58 9.491 C 7.988 10.448 4.816 10.428 4.474 10.428 C 4.975 8.069 6.55 6.08 8.73 5.05 Z M 4.308 12.01 L 4.308 11.775 C 4.64 11.785 8.368 11.835 12.205 10.682 C 12.43 11.112 12.635 11.551 12.83 11.99 C 12.732 12.02 12.625 12.049 12.527 12.078 C 8.564 13.357 6.456 16.851 6.28 17.144 C 5.011 15.735 4.308 13.906 4.308 12.01 Z M 12 19.692 C 10.291 19.695 8.631 19.124 7.285 18.072 C 7.422 17.788 8.984 14.782 13.318 13.269 C 13.338 13.259 13.348 13.259 13.367 13.249 C 14.098 15.135 14.647 17.087 15.007 19.077 C 14.057 19.485 13.034 19.695 12 19.692 Z M 16.285 18.374 C 16.207 17.906 15.797 15.661 14.792 12.898 C 17.202 12.518 19.312 13.142 19.575 13.23 C 19.243 15.328 18.051 17.193 16.285 18.374 Z" fill="var(--token-d7379877-9c95-4854-a947-156f52864a3b, rgb(55, 55, 55)) /* {&quot;name&quot;:&quot;Text / White&quot;} */"/></svg>