<svg xmlns="http://www.w3.org/2000/svg" xlink="http://www.w3.org/1999/xlink" viewBox="0 0 16 16" id="svg1425304129"><path d="M 12.5 13.794 L 7.5 13.794 C 6.948 13.794 6.5 13.346 6.5 12.794 L 6.5 6.794 C 6.5 6.241 6.948 5.794 7.5 5.794 L 12.5 5.794 C 13.052 5.794 13.5 6.241 13.5 6.794 L 13.5 12.794 C 13.5 13.346 13.052 13.794 12.5 13.794 Z" fill="transparent" stroke-width="1.5" stroke="var(--token-3e69690f-e811-4708-a47c-5853c9294015, rgb(54, 54, 54)) /* {&quot;name&quot;:&quot;Text / Grey 100&quot;} */" stroke-linecap="round" stroke-linejoin="round" stroke-dasharray="" opacity="0.6"/><path d="M 9.5 3.722 L 9.5 2.794 C 9.5 2.241 9.052 1.794 8.5 1.794 L 3.5 1.794 C 2.948 1.794 2.5 2.241 2.5 2.794 L 2.5 9.794 C 2.5 10.346 2.948 10.794 3.5 10.794 L 4.364 10.794" fill="transparent" stroke-width="1.5" stroke="var(--token-3e69690f-e811-4708-a47c-5853c9294015, rgb(54, 54, 54)) /* {&quot;name&quot;:&quot;Text / Grey 100&quot;} */" stroke-linecap="round" stroke-linejoin="round" stroke-dasharray="" opacity="0.4"/></svg>