<svg xmlns="http://www.w3.org/2000/svg" xlink="http://www.w3.org/1999/xlink" viewBox="0 0 32 32" id="svg625744719"><path d="M 7.32 13.621 C 7.511 12.124 8.784 11.001 10.293 11 L 21.704 11 C 23.214 11 24.489 12.123 24.68 13.621 L 26.037 24.288 C 26.146 25.143 25.882 26.003 25.313 26.65 C 24.743 27.296 23.923 27.667 23.061 27.667 L 8.937 27.667 C 8.076 27.667 7.256 27.296 6.686 26.65 C 6.117 26.003 5.853 25.143 5.961 24.288 L 7.319 13.621 Z M 10.293 13 C 9.79 13 9.365 13.374 9.301 13.873 L 7.944 24.54 C 7.908 24.825 7.996 25.112 8.185 25.327 C 8.375 25.543 8.649 25.667 8.936 25.667 L 23.061 25.667 C 23.349 25.667 23.622 25.543 23.812 25.327 C 24.002 25.112 24.09 24.825 24.053 24.54 L 22.696 13.873 C 22.632 13.374 22.207 13 21.704 13 Z" fill="var(--token-d7379877-9c95-4854-a947-156f52864a3b, rgb(55, 55, 55)) /* {&quot;name&quot;:&quot;Text / White&quot;} */"/><path d="M 12 14.667 C 12.736 14.667 13.333 15.264 13.333 16 L 13.333 16.013 C 13.333 16.75 12.736 17.347 12 17.347 C 11.264 17.347 10.667 16.75 10.667 16.013 L 10.667 16 C 10.667 15.264 11.264 14.667 12 14.667 Z M 20 14.667 C 20.736 14.667 21.333 15.264 21.333 16 L 21.333 16.013 C 21.333 16.75 20.736 17.347 20 17.347 C 19.264 17.347 18.667 16.75 18.667 16.013 L 18.667 16 C 18.667 15.264 19.264 14.667 20 14.667 Z M 16 6.413 C 14.413 6.413 13.08 7.74 13.08 9.436 L 13.08 10.667 C 13.08 11.263 12.596 11.747 12 11.747 C 11.404 11.747 10.92 11.263 10.92 10.667 L 10.92 9.436 C 10.92 6.6 13.169 4.253 16 4.253 C 18.831 4.253 21.08 6.6 21.08 9.436 L 21.08 10.667 C 21.08 11.263 20.596 11.747 20 11.747 C 19.404 11.747 18.92 11.263 18.92 10.667 L 18.92 9.436 C 18.92 7.74 17.587 6.413 16 6.413 Z" fill="var(--token-d7379877-9c95-4854-a947-156f52864a3b, rgb(55, 55, 55)) /* {&quot;name&quot;:&quot;Text / White&quot;} */"/></svg>