<svg width="21" height="30" viewBox="-2 -2 21 30" fill="none" xmlns="http://www.w3.org/2000/svg" id="svg-1394665679_2771">
<g filter="url(#svg-1394665679_2771_filter0_d_116_1212)">
<path d="M9.07424 25.7146C7.19523 25.7146 5.60619 25.181 4.30712 24.1139C3.00806 23.0468 2.02216 21.5506 1.34943 19.6252C0.676698 17.6766 0.340332 15.38 0.340332 12.7355C0.340332 10.1838 0.734692 7.95678 1.52341 6.05458C2.31213 4.12918 3.39082 2.64453 4.75948 1.60064C6.15134 0.533545 7.74037 0 9.52659 0C10.4313 0 11.2548 0.0927901 11.9971 0.27837C12.7395 0.440754 13.389 0.661132 13.9457 0.939504C14.2473 1.10189 14.3981 1.34546 14.3981 1.67023L14.5025 6.95928C14.5025 7.35364 14.3633 7.55083 14.0849 7.55083C13.8297 7.55083 13.6674 7.40004 13.5978 7.09847L13.3194 6.05458C12.8091 4.12918 12.2291 2.80691 11.5796 2.08779C10.93 1.36866 10.0369 1.0091 8.90025 1.0091C7.20683 1.0091 5.80337 2.01819 4.68989 4.03639C3.5996 6.03138 3.05445 8.93108 3.05445 12.7355C3.05445 16.6559 3.6112 19.6484 4.72468 21.713C5.86137 23.7544 7.31122 24.7751 9.07424 24.7751C10.0253 24.7751 10.7445 24.5663 11.2316 24.1487C11.7188 23.7312 11.9623 22.954 11.9623 21.8174V14.1969C11.9623 13.7098 11.8811 13.3734 11.7188 13.1878C11.5796 13.0023 11.2664 12.8863 10.7793 12.8399L9.4222 12.7007C9.12063 12.6775 8.96985 12.5383 8.96985 12.2831C8.96985 12.028 9.14383 11.9004 9.49179 11.9004H15.8595C16.2075 11.9004 16.3815 12.0396 16.3815 12.3179C16.3815 12.5267 16.2539 12.6543 15.9987 12.7007L15.4768 12.7703C14.9664 12.8399 14.6649 12.9791 14.5721 13.1878C14.4793 13.3966 14.4329 13.7446 14.4329 14.2317V23.6616C14.4329 23.9167 14.3633 24.1255 14.2241 24.2879C14.0849 24.4271 13.8413 24.5895 13.4934 24.7751C12.9366 25.0534 12.2987 25.2738 11.5796 25.4362C10.8605 25.6218 10.0253 25.7146 9.07424 25.7146Z" fill="url(#svg-1394665679_2771_paint0_linear_116_1212)" shape-rendering="crispEdges"/>
</g>
<defs>
<filter id="svg-1394665679_2771_filter0_d_116_1212" x="-4.16273" y="-2.25153" width="25.0473" height="34.7207" filterUnits="userSpaceOnUse" color-interpolation-filters="sRGB">
<feFlood flood-opacity="0" result="BackgroundImageFix"/>
<feColorMatrix in="SourceAlpha" type="matrix" values="0 0 0 0 0 0 0 0 0 0 0 0 0 0 0 0 0 0 127 0" result="hardAlpha"/>
<feOffset dy="2.25153"/>
<feGaussianBlur stdDeviation="2.25153"/>
<feComposite in2="hardAlpha" operator="out"/>
<feColorMatrix type="matrix" values="0 0 0 0 0 0 0 0 0 0 0 0 0 0 0 0 0 0 0.25 0"/>
<feBlend mode="normal" in2="BackgroundImageFix" result="effect1_dropShadow_116_1212"/>
<feBlend mode="normal" in="SourceGraphic" in2="effect1_dropShadow_116_1212" result="shape"/>
</filter>
<linearGradient id="svg-1394665679_2771_paint0_linear_116_1212" x1="8.36091" y1="0" x2="8.36091" y2="31.4289" gradientUnits="userSpaceOnUse">
<stop offset="0.515625" stop-color="white"/>
<stop offset="1" stop-color="white" stop-opacity="0.59"/>
</linearGradient>
</defs>
</svg>